<?xml version="1.0" encoding="UTF-8"?><svg xmlns="http://www.w3.org/2000/svg" xmlns:xlink="http://www.w3.org/1999/xlink" width="375" zoomAndPan="magnify" viewBox="0 0 375 374.999991" height="374.999991" preserveAspectRatio="xMidYMid meet" version="1.0"><defs><clipPath id="clip-0"><path d="M 49.695312 37.5 L 337.695312 37.5 L 337.695312 326.25 L 49.695312 326.25 Z M 49.695312 37.5 " clip-rule="nonzero"/></clipPath><clipPath id="clip-1"><path d="M 37.5 34.972656 L 337.5 34.972656 L 337.5 335.722656 L 37.5 335.722656 Z M 37.5 34.972656 " clip-rule="nonzero"/></clipPath><clipPath id="clip-2"><path d="M 37.5 39.5625 L 323.25 39.5625 L 323.25 326.0625 L 37.5 326.0625 Z M 37.5 39.5625 " clip-rule="nonzero"/></clipPath></defs><rect x="-37.5" width="450" fill="rgb(100%, 100%, 100%)" y="-37.499999" height="449.999989" fill-opacity="1"/><rect x="-37.5" width="450" fill="rgb(100%, 100%, 100%)" y="-37.499999" height="449.999989" fill-opacity="1"/><rect x="-37.5" width="450" fill="rgb(14.509583%, 14.118958%, 13.328552%)" y="-37.499999" height="449.999989" fill-opacity="1"/><g clip-path="url(#clip-0)"><path fill="rgb(92.158508%, 36.859131%, 15.689087%)" d="M 337.589844 170.773438 C 337.597656 170.667969 337.574219 170.566406 337.542969 170.472656 C 337.539062 170.464844 337.542969 170.460938 337.539062 170.453125 L 308.839844 95.152344 C 308.835938 95.144531 308.824219 95.136719 308.820312 95.128906 C 308.773438 95.015625 308.707031 94.910156 308.605469 94.832031 L 245.488281 44.671875 C 245.390625 44.589844 245.269531 44.535156 245.140625 44.511719 C 245.128906 44.511719 245.121094 44.507812 245.109375 44.507812 L 193.59375 37.507812 C 193.492188 37.496094 193.382812 37.503906 193.285156 37.53125 L 168.730469 44.5 L 168.03125 44.5 C 167.890625 44.5 167.757812 44.539062 167.644531 44.609375 C 167.640625 44.609375 167.640625 44.609375 167.640625 44.609375 L 167.015625 44.988281 L 106.578125 62.148438 C 106.558594 62.15625 106.546875 62.171875 106.53125 62.175781 C 106.449219 62.207031 106.375 62.25 106.308594 62.308594 C 106.28125 62.328125 106.253906 62.347656 106.230469 62.375 C 106.214844 62.390625 106.199219 62.394531 106.1875 62.414062 L 53.261719 131.054688 C 53.246094 131.074219 53.242188 131.097656 53.230469 131.121094 C 53.210938 131.152344 53.1875 131.179688 53.171875 131.210938 C 53.164062 131.234375 53.160156 131.253906 53.152344 131.277344 C 53.140625 131.316406 53.132812 131.359375 53.125 131.398438 C 53.121094 131.425781 53.109375 131.445312 53.109375 131.472656 L 49.777344 191.839844 C 49.773438 191.894531 49.777344 191.949219 49.78125 192 L 54.664062 222.53125 C 54.667969 222.570312 54.691406 222.605469 54.703125 222.644531 C 54.710938 222.667969 54.707031 222.695312 54.71875 222.71875 C 54.722656 222.726562 54.726562 222.730469 54.730469 222.738281 C 54.734375 222.746094 54.734375 222.753906 54.738281 222.761719 L 79.378906 269.652344 C 79.421875 269.734375 79.476562 269.804688 79.546875 269.867188 L 108.445312 295.394531 C 108.492188 295.445312 108.546875 295.492188 108.601562 295.53125 L 142.019531 318.03125 C 142.113281 318.09375 142.21875 318.132812 142.328125 318.152344 L 194.757812 326.296875 L 194.765625 326.296875 C 194.769531 326.296875 194.769531 326.300781 194.777344 326.300781 C 194.816406 326.304688 194.851562 326.308594 194.890625 326.308594 C 194.890625 326.308594 194.890625 326.308594 194.894531 326.308594 C 194.945312 326.308594 194.996094 326.304688 195.046875 326.292969 C 195.046875 326.292969 195.046875 326.292969 195.050781 326.289062 C 195.050781 326.289062 195.054688 326.289062 195.054688 326.289062 C 195.054688 326.289062 195.058594 326.289062 195.058594 326.289062 C 195.0625 326.289062 195.066406 326.289062 195.070312 326.285156 C 195.070312 326.285156 195.070312 326.285156 195.074219 326.285156 C 195.074219 326.289062 195.078125 326.285156 195.074219 326.285156 C 195.074219 326.285156 195.078125 326.285156 195.078125 326.285156 L 195.082031 326.28125 C 195.082031 326.28125 195.082031 326.28125 195.085938 326.28125 C 195.085938 326.28125 195.085938 326.28125 195.089844 326.28125 C 195.09375 326.277344 195.09375 326.277344 195.097656 326.277344 L 280.773438 301.261719 C 280.804688 301.253906 280.824219 301.222656 280.851562 301.207031 C 280.933594 301.171875 281 301.125 281.066406 301.058594 C 281.09375 301.03125 281.136719 301.023438 281.160156 300.992188 L 333.285156 232.316406 C 333.367188 232.207031 333.402344 232.082031 333.417969 231.953125 C 333.421875 231.9375 333.433594 231.925781 333.4375 231.914062 Z M 331.96875 231.265625 L 309.425781 236.957031 L 335.78125 175.121094 Z M 240.496094 222.503906 L 157.433594 193.300781 L 220.082031 148.226562 Z M 220.085938 145.796875 L 157.613281 104.96875 L 238.835938 81.75 Z M 219.191406 147.011719 L 156.574219 192.0625 L 156.574219 106.089844 Z M 155.0625 192.324219 L 84 157.476562 L 155.0625 106.171875 Z M 170.453125 275.867188 L 102.710938 237.945312 L 155.3125 194.925781 Z M 156.800781 194.679688 L 240.042969 223.945312 L 172.011719 275.972656 Z M 240.953125 225.144531 L 245.339844 287.359375 L 173.371094 276.828125 Z M 241.921875 221.980469 L 221.542969 147.839844 L 290.847656 154.761719 Z M 291.8125 155.996094 L 307.183594 237.082031 L 242.898438 223.203125 Z M 308.414062 235.480469 L 293.21875 155.316406 L 335.828125 171.152344 Z M 291.917969 152.40625 L 241.691406 81.800781 L 307.199219 95.992188 Z M 290.652344 153.226562 L 221.503906 146.324219 L 240.234375 82.351562 Z M 156.808594 103.628906 L 168.574219 46.363281 L 237.859375 80.460938 Z M 155.25 103.710938 L 102.101562 85.957031 L 166.945312 46.792969 Z M 154.183594 104.945312 L 83.773438 155.78125 L 100.851562 87.128906 Z M 82.113281 156.191406 L 54.957031 131.496094 L 98.941406 88.550781 Z M 99.640625 85.757812 L 61.003906 123.484375 L 105.023438 66.394531 Z M 81.640625 157.800781 L 56.101562 218.800781 L 54.644531 133.246094 Z M 82.339844 160.039062 L 100.332031 236.910156 L 56.414062 221.957031 Z M 83.640625 158.976562 L 154.429688 193.695312 L 101.835938 236.710938 Z M 169.535156 277.082031 L 109.648438 293.9375 L 102.328125 239.457031 Z M 171.089844 278.210938 L 193.40625 324.222656 L 111.496094 294.980469 Z M 195.175781 324.410156 L 172.792969 278.269531 L 244.21875 288.71875 Z M 246.8125 286.742188 L 242.433594 224.644531 L 306.441406 238.464844 Z M 306.1875 240.609375 L 280.15625 299.589844 L 247.679688 287.984375 Z M 308.679688 238.703125 L 330.785156 233.117188 L 283.851562 294.960938 Z M 293.136719 153.675781 L 308.257812 97.859375 L 335.539062 169.433594 Z M 245.570312 46.664062 L 305.132812 94 L 240.792969 80.0625 Z M 193.546875 39.023438 L 233.863281 44.5 L 174.25 44.5 Z M 244.140625 46.007812 L 239.347656 79.515625 L 171.269531 46.007812 Z M 101.550781 84.527344 L 107.402344 63.484375 L 162.117188 47.945312 Z M 51.285156 191.839844 L 53.460938 152.425781 L 54.46875 211.773438 Z M 80.648438 268.828125 L 60.652344 230.777344 L 104.160156 289.597656 Z M 57.449219 223.902344 L 100.691406 238.625 L 107.875 292.085938 Z M 114.398438 297.617188 L 187.136719 323.585938 L 142.722656 316.683594 Z M 246.28125 289.085938 L 278.121094 300.464844 L 198.832031 323.617188 Z M 246.28125 289.085938 " fill-opacity="1" fill-rule="nonzero"/></g><g clip-path="url(#clip-1)"><path fill="rgb(100%, 98.81897%, 94.898987%)" d="M 337.382812 173.785156 C 337.390625 173.675781 337.371094 173.570312 337.335938 173.472656 C 337.335938 173.464844 337.335938 173.460938 337.335938 173.453125 L 307.4375 95.023438 C 307.433594 95.011719 307.421875 95.007812 307.417969 94.996094 C 307.367188 94.882812 307.300781 94.769531 307.195312 94.6875 L 241.449219 42.445312 C 241.347656 42.359375 241.222656 42.300781 241.085938 42.277344 C 241.074219 42.277344 241.066406 42.273438 241.054688 42.273438 L 187.394531 34.980469 C 187.289062 34.96875 187.175781 34.976562 187.074219 35.003906 L 161.496094 42.265625 L 160.769531 42.265625 C 160.621094 42.265625 160.484375 42.308594 160.363281 42.378906 C 160.363281 42.378906 160.363281 42.378906 160.359375 42.378906 L 159.710938 42.773438 L 96.757812 60.648438 C 96.738281 60.652344 96.726562 60.671875 96.707031 60.675781 C 96.621094 60.707031 96.546875 60.753906 96.476562 60.8125 C 96.445312 60.835938 96.417969 60.855469 96.394531 60.882812 C 96.378906 60.898438 96.363281 60.90625 96.347656 60.921875 L 41.21875 132.414062 C 41.203125 132.4375 41.199219 132.464844 41.1875 132.488281 C 41.164062 132.519531 41.140625 132.546875 41.128906 132.582031 C 41.117188 132.601562 41.117188 132.625 41.109375 132.648438 C 41.09375 132.691406 41.085938 132.734375 41.078125 132.777344 C 41.074219 132.804688 41.0625 132.824219 41.058594 132.851562 L 37.589844 195.730469 C 37.585938 195.785156 37.589844 195.839844 37.597656 195.894531 L 42.679688 227.695312 C 42.6875 227.738281 42.707031 227.773438 42.71875 227.8125 C 42.726562 227.839844 42.726562 227.867188 42.738281 227.890625 C 42.742188 227.898438 42.746094 227.902344 42.75 227.910156 C 42.753906 227.917969 42.753906 227.929688 42.757812 227.9375 L 68.425781 276.773438 C 68.46875 276.859375 68.527344 276.933594 68.601562 277 L 98.703125 303.585938 C 98.75 303.640625 98.804688 303.6875 98.863281 303.726562 L 133.675781 327.164062 C 133.769531 327.230469 133.878906 327.269531 133.992188 327.289062 L 188.605469 335.773438 L 188.613281 335.773438 C 188.613281 335.773438 188.617188 335.773438 188.617188 335.773438 C 188.621094 335.773438 188.621094 335.777344 188.625 335.777344 C 188.667969 335.78125 188.707031 335.785156 188.746094 335.785156 C 188.746094 335.785156 188.746094 335.785156 188.75 335.785156 C 188.800781 335.785156 188.855469 335.78125 188.910156 335.769531 C 188.910156 335.769531 188.910156 335.769531 188.910156 335.765625 C 188.914062 335.765625 188.914062 335.765625 188.914062 335.765625 C 188.917969 335.765625 188.917969 335.765625 188.917969 335.765625 C 188.917969 335.765625 188.917969 335.765625 188.921875 335.765625 C 188.925781 335.761719 188.929688 335.761719 188.933594 335.761719 C 188.9375 335.761719 188.941406 335.761719 188.9375 335.761719 C 188.9375 335.761719 188.941406 335.761719 188.941406 335.761719 L 188.941406 335.757812 C 188.941406 335.757812 188.945312 335.757812 188.945312 335.757812 C 188.945312 335.757812 188.945312 335.757812 188.949219 335.757812 C 188.949219 335.757812 188.949219 335.757812 188.953125 335.757812 C 188.953125 335.757812 188.953125 335.753906 188.953125 335.753906 C 188.957031 335.753906 188.960938 335.753906 188.960938 335.753906 L 278.203125 309.699219 C 278.238281 309.6875 278.257812 309.65625 278.285156 309.640625 C 278.371094 309.605469 278.441406 309.554688 278.507812 309.488281 C 278.539062 309.460938 278.582031 309.453125 278.609375 309.417969 L 332.898438 237.886719 C 332.988281 237.773438 333.023438 237.640625 333.042969 237.507812 C 333.042969 237.492188 333.058594 237.480469 333.058594 237.464844 Z M 331.53125 236.789062 L 308.050781 242.722656 L 335.5 178.316406 Z M 236.25 227.667969 L 149.726562 197.25 L 214.984375 150.304688 Z M 214.988281 147.769531 L 149.914062 105.246094 L 234.523438 81.066406 Z M 214.058594 149.039062 L 148.832031 195.960938 L 148.832031 106.417969 Z M 147.261719 196.234375 L 73.238281 159.9375 L 147.261719 106.5 Z M 163.292969 283.25 L 92.730469 243.75 L 147.519531 198.941406 Z M 149.070312 198.6875 L 235.777344 229.167969 L 164.914062 283.355469 Z M 236.726562 230.417969 L 241.296875 295.214844 L 166.328125 284.25 Z M 237.734375 227.121094 L 216.507812 149.902344 L 288.695312 157.109375 Z M 289.703125 158.398438 L 305.710938 242.851562 L 238.753906 228.394531 Z M 306.996094 241.183594 L 291.167969 157.6875 L 335.554688 174.183594 Z M 289.8125 154.65625 L 237.492188 81.117188 L 305.730469 95.898438 Z M 288.496094 155.511719 L 216.464844 148.320312 L 235.976562 81.691406 Z M 149.078125 103.851562 L 161.335938 44.207031 L 233.503906 79.722656 Z M 147.457031 103.9375 L 92.09375 85.445312 L 159.636719 44.652344 Z M 146.347656 105.222656 L 73 158.171875 L 90.792969 86.664062 Z M 71.273438 158.597656 L 42.988281 132.875 L 88.800781 88.148438 Z M 89.53125 85.238281 L 49.285156 124.535156 L 95.136719 65.070312 Z M 70.78125 160.273438 L 44.175781 223.808594 L 42.660156 134.699219 Z M 71.507812 162.605469 L 90.25 242.671875 L 44.503906 227.097656 Z M 72.863281 161.5 L 146.601562 197.660156 L 91.816406 242.464844 Z M 162.332031 284.511719 L 99.953125 302.066406 L 92.328125 245.324219 Z M 163.953125 285.691406 L 187.199219 333.613281 L 101.878906 303.15625 Z M 189.039062 333.808594 L 165.726562 285.75 L 240.128906 296.632812 Z M 242.828125 294.574219 L 238.265625 229.894531 L 304.9375 244.292969 Z M 304.675781 246.523438 L 277.5625 307.957031 L 243.730469 295.867188 Z M 307.269531 244.539062 L 330.296875 238.722656 L 281.410156 303.136719 Z M 291.082031 155.976562 L 306.832031 97.84375 L 335.246094 172.394531 Z M 241.535156 44.519531 L 303.578125 93.824219 L 236.558594 79.304688 Z M 187.34375 36.5625 L 229.34375 42.265625 L 167.246094 42.265625 Z M 240.046875 43.835938 L 235.050781 78.734375 L 164.140625 43.835938 Z M 91.519531 83.957031 L 97.613281 62.039062 L 154.609375 45.855469 Z M 39.160156 195.730469 L 41.425781 154.675781 L 42.476562 216.492188 Z M 69.746094 275.914062 L 48.921875 236.285156 L 94.234375 297.550781 Z M 45.582031 229.125 L 90.625 244.457031 L 98.109375 300.140625 Z M 104.902344 305.902344 L 180.667969 332.949219 L 134.40625 325.761719 Z M 242.277344 297.015625 L 275.441406 308.867188 L 192.851562 332.980469 Z M 242.277344 297.015625 " fill-opacity="1" fill-rule="nonzero"/></g><g clip-path="url(#clip-2)"><path fill="rgb(92.158508%, 36.859131%, 15.689087%)" d="M 323.140625 171.796875 C 323.148438 171.695312 323.128906 171.59375 323.097656 171.5 C 323.09375 171.492188 323.097656 171.488281 323.09375 171.480469 L 294.617188 96.769531 C 294.613281 96.757812 294.605469 96.753906 294.597656 96.742188 C 294.550781 96.632812 294.488281 96.527344 294.386719 96.449219 L 231.765625 46.679688 C 231.667969 46.601562 231.546875 46.542969 231.417969 46.519531 C 231.40625 46.519531 231.398438 46.515625 231.386719 46.515625 L 180.273438 39.570312 C 180.171875 39.558594 180.066406 39.566406 179.96875 39.59375 L 155.605469 46.511719 L 154.914062 46.511719 C 154.773438 46.511719 154.640625 46.550781 154.527344 46.617188 C 154.527344 46.617188 154.527344 46.617188 154.523438 46.617188 L 153.90625 46.992188 L 93.941406 64.019531 C 93.921875 64.027344 93.910156 64.042969 93.890625 64.046875 C 93.8125 64.078125 93.738281 64.121094 93.671875 64.175781 C 93.644531 64.199219 93.617188 64.21875 93.59375 64.246094 C 93.582031 64.257812 93.5625 64.265625 93.550781 64.28125 L 41.042969 132.386719 C 41.023438 132.410156 41.023438 132.433594 41.007812 132.457031 C 40.988281 132.484375 40.964844 132.511719 40.953125 132.546875 C 40.945312 132.566406 40.941406 132.589844 40.933594 132.609375 C 40.921875 132.648438 40.914062 132.691406 40.90625 132.730469 C 40.902344 132.757812 40.890625 132.777344 40.890625 132.804688 L 37.582031 192.703125 C 37.578125 192.753906 37.582031 192.808594 37.589844 192.859375 L 42.429688 223.152344 C 42.4375 223.191406 42.457031 223.226562 42.46875 223.265625 C 42.476562 223.289062 42.476562 223.316406 42.488281 223.339844 C 42.488281 223.347656 42.496094 223.351562 42.5 223.359375 C 42.5 223.367188 42.5 223.375 42.507812 223.382812 L 66.953125 269.90625 C 66.996094 269.988281 67.050781 270.058594 67.121094 270.121094 L 95.792969 295.449219 C 95.839844 295.5 95.890625 295.546875 95.949219 295.582031 L 129.105469 317.910156 C 129.195312 317.972656 129.300781 318.011719 129.410156 318.027344 L 181.429688 326.109375 L 181.4375 326.113281 C 181.441406 326.113281 181.441406 326.113281 181.449219 326.113281 C 181.484375 326.117188 181.523438 326.121094 181.5625 326.121094 C 181.613281 326.121094 181.667969 326.117188 181.71875 326.105469 C 181.722656 326.105469 181.722656 326.105469 181.722656 326.105469 C 181.722656 326.105469 181.722656 326.105469 181.726562 326.101562 C 181.726562 326.101562 181.726562 326.101562 181.730469 326.101562 C 181.730469 326.101562 181.734375 326.101562 181.742188 326.097656 C 181.742188 326.101562 181.746094 326.097656 181.746094 326.097656 L 181.75 326.097656 C 181.753906 326.097656 181.753906 326.09375 181.753906 326.09375 C 181.753906 326.09375 181.753906 326.09375 181.757812 326.09375 C 181.757812 326.097656 181.757812 326.09375 181.761719 326.09375 C 181.761719 326.09375 181.765625 326.09375 181.769531 326.089844 L 266.773438 301.269531 C 266.804688 301.261719 266.820312 301.230469 266.851562 301.214844 C 266.933594 301.179688 266.996094 301.132812 267.0625 301.070312 C 267.089844 301.042969 267.132812 301.035156 267.15625 301.003906 L 318.871094 232.863281 C 318.953125 232.753906 318.988281 232.628906 319.007812 232.5 C 319.007812 232.488281 319.019531 232.476562 319.023438 232.460938 Z M 317.570312 231.816406 L 295.203125 237.46875 L 321.347656 176.113281 Z M 226.8125 223.125 L 144.394531 194.152344 L 206.554688 149.429688 Z M 206.558594 147.015625 L 144.574219 106.507812 L 225.164062 83.472656 Z M 205.671875 148.222656 L 143.542969 192.921875 L 143.542969 107.621094 Z M 142.046875 193.179688 L 71.539062 158.605469 L 142.046875 107.703125 Z M 157.316406 276.074219 L 90.105469 238.445312 L 142.292969 195.761719 Z M 143.769531 195.519531 L 226.359375 224.554688 L 158.859375 276.175781 Z M 227.265625 225.746094 L 231.617188 287.476562 L 160.210938 277.027344 Z M 228.222656 222.609375 L 208.003906 149.046875 L 276.765625 155.910156 Z M 277.722656 157.136719 L 292.972656 237.589844 L 229.195312 223.820312 Z M 294.195312 236.003906 L 279.121094 156.460938 L 321.398438 172.175781 Z M 277.832031 153.574219 L 227.996094 83.519531 L 292.992188 97.601562 Z M 276.574219 154.390625 L 207.964844 147.539062 L 226.550781 84.066406 Z M 143.777344 105.179688 L 155.453125 48.359375 L 224.195312 82.191406 Z M 142.230469 105.261719 L 89.5 87.644531 L 153.835938 48.785156 Z M 141.175781 106.484375 L 71.3125 156.921875 L 88.257812 88.804688 Z M 69.667969 157.328125 L 42.726562 132.828125 L 86.363281 90.21875 Z M 87.058594 87.449219 L 48.722656 124.878906 L 92.398438 68.234375 Z M 69.199219 158.925781 L 43.855469 219.453125 L 42.414062 134.5625 Z M 69.890625 161.148438 L 87.742188 237.417969 L 44.167969 222.585938 Z M 71.179688 160.09375 L 141.417969 194.539062 L 89.234375 237.222656 Z M 156.402344 277.28125 L 96.984375 294 L 89.722656 239.949219 Z M 157.945312 278.398438 L 180.085938 324.054688 L 98.816406 295.039062 Z M 181.84375 324.238281 L 159.636719 278.457031 L 230.503906 288.828125 Z M 233.074219 286.863281 L 228.730469 225.25 L 292.238281 238.964844 Z M 291.984375 241.089844 L 266.160156 299.613281 L 233.9375 288.09375 Z M 294.457031 239.199219 L 316.394531 233.65625 L 269.824219 295.019531 Z M 279.039062 154.835938 L 294.039062 99.453125 L 321.105469 170.472656 Z M 231.84375 48.65625 L 290.941406 95.625 L 227.105469 81.792969 Z M 180.226562 41.074219 L 220.230469 46.511719 L 161.082031 46.511719 Z M 230.425781 48.007812 L 225.667969 81.25 L 158.125 48.007812 Z M 88.953125 86.226562 L 94.757812 65.34375 L 149.046875 49.929688 Z M 39.078125 192.703125 L 41.238281 153.59375 L 42.238281 212.480469 Z M 68.214844 269.089844 L 48.375 231.335938 L 91.539062 289.699219 Z M 45.195312 224.515625 L 88.097656 239.121094 L 95.226562 292.167969 Z M 101.699219 297.65625 L 173.867188 323.417969 L 129.800781 316.574219 Z M 232.550781 289.1875 L 264.140625 300.480469 L 185.472656 323.453125 Z M 232.550781 289.1875 " fill-opacity="1" fill-rule="nonzero"/></g></svg>