<?xml version="1.0" encoding="UTF-8"?><svg xmlns="http://www.w3.org/2000/svg" xmlns:xlink="http://www.w3.org/1999/xlink" width="375" zoomAndPan="magnify" viewBox="0 0 375 374.999991" height="374.999991" preserveAspectRatio="xMidYMid meet" version="1.0"><path fill="rgb(50.588989%, 69.799805%, 60.389709%)" d="M 57.265625 146.109375 C 55.910156 146.109375 54.558594 146.179688 53.210938 146.3125 C 51.859375 146.445312 50.523438 146.640625 49.191406 146.90625 C 47.863281 147.171875 46.550781 147.5 45.253906 147.894531 C 43.957031 148.285156 42.679688 148.742188 41.429688 149.261719 C 40.175781 149.78125 38.953125 150.359375 37.757812 151 C 36.5625 151.636719 35.398438 152.332031 34.273438 153.085938 C 33.144531 153.839844 32.058594 154.644531 31.011719 155.507812 C 29.960938 156.367188 28.960938 157.273438 28 158.234375 C 27.042969 159.191406 26.132812 160.195312 25.273438 161.242188 C 24.414062 162.292969 23.605469 163.378906 22.855469 164.503906 C 22.101562 165.632812 21.40625 166.792969 20.765625 167.988281 C 20.125 169.183594 19.546875 170.410156 19.027344 171.660156 C 18.511719 172.914062 18.054688 174.1875 17.660156 175.484375 C 17.265625 176.78125 16.9375 178.097656 16.671875 179.425781 C 16.410156 180.753906 16.210938 182.09375 16.078125 183.441406 C 15.945312 184.792969 15.878906 186.144531 15.878906 187.5 C 15.878906 188.855469 15.945312 190.207031 16.078125 191.558594 C 16.210938 192.90625 16.410156 194.246094 16.671875 195.574219 C 16.9375 196.902344 17.265625 198.21875 17.660156 199.515625 C 18.054688 200.8125 18.511719 202.085938 19.027344 203.339844 C 19.546875 204.589844 20.125 205.816406 20.765625 207.011719 C 21.40625 208.207031 22.101562 209.367188 22.855469 210.492188 C 23.605469 211.621094 24.414062 212.707031 25.273438 213.757812 C 26.132812 214.804688 27.042969 215.808594 28 216.765625 C 28.960938 217.722656 29.960938 218.632812 31.011719 219.492188 C 32.058594 220.355469 33.144531 221.160156 34.273438 221.914062 C 35.398438 222.667969 36.5625 223.363281 37.757812 224 C 38.953125 224.640625 40.175781 225.21875 41.429688 225.738281 C 42.679688 226.257812 43.957031 226.710938 45.253906 227.105469 C 46.550781 227.5 47.863281 227.828125 49.191406 228.09375 C 50.523438 228.359375 51.859375 228.554688 53.210938 228.6875 C 54.558594 228.820312 55.910156 228.886719 57.265625 228.886719 C 58.621094 228.886719 59.976562 228.820312 61.324219 228.6875 C 62.671875 228.554688 64.011719 228.359375 65.339844 228.09375 C 66.671875 227.828125 67.984375 227.5 69.28125 227.105469 C 70.578125 226.710938 71.851562 226.257812 73.105469 225.738281 C 74.359375 225.21875 75.582031 224.640625 76.777344 224 C 77.972656 223.363281 79.132812 222.667969 80.261719 221.914062 C 81.386719 221.160156 82.476562 220.355469 83.523438 219.492188 C 84.570312 218.632812 85.574219 217.722656 86.53125 216.765625 C 87.492188 215.808594 88.402344 214.804688 89.261719 213.757812 C 90.121094 212.707031 90.925781 211.621094 91.679688 210.492188 C 92.433594 209.367188 93.128906 208.207031 93.769531 207.011719 C 94.40625 205.816406 94.984375 204.589844 95.503906 203.339844 C 96.023438 202.085938 96.480469 200.8125 96.875 199.515625 C 97.265625 198.21875 97.59375 196.902344 97.859375 195.574219 C 98.125 194.246094 98.324219 192.90625 98.457031 191.558594 C 98.589844 190.207031 98.65625 188.855469 98.65625 187.5 C 98.65625 186.144531 98.589844 184.792969 98.457031 183.441406 C 98.324219 182.09375 98.125 180.753906 97.859375 179.425781 C 97.59375 178.097656 97.265625 176.78125 96.875 175.484375 C 96.480469 174.1875 96.023438 172.914062 95.503906 171.660156 C 94.984375 170.410156 94.40625 169.183594 93.769531 167.988281 C 93.128906 166.792969 92.433594 165.632812 91.679688 164.503906 C 90.925781 163.378906 90.121094 162.292969 89.261719 161.242188 C 88.402344 160.195312 87.492188 159.191406 86.53125 158.234375 C 85.574219 157.273438 84.570312 156.367188 83.523438 155.507812 C 82.476562 154.644531 81.386719 153.839844 80.261719 153.085938 C 79.132812 152.332031 77.972656 151.636719 76.777344 151 C 75.582031 150.359375 74.359375 149.78125 73.105469 149.261719 C 71.851562 148.742188 70.578125 148.285156 69.28125 147.894531 C 67.984375 147.5 66.671875 147.171875 65.339844 146.90625 C 64.011719 146.640625 62.671875 146.445312 61.324219 146.3125 C 59.976562 146.179688 58.621094 146.109375 57.265625 146.109375 Z M 57.265625 146.109375 " fill-opacity="1" fill-rule="nonzero"/><path fill="rgb(23.919678%, 25.099182%, 35.688782%)" d="M 185.285156 146.109375 C 183.929688 146.109375 182.578125 146.179688 181.226562 146.3125 C 179.878906 146.445312 178.539062 146.640625 177.210938 146.90625 C 175.878906 147.171875 174.566406 147.5 173.269531 147.894531 C 171.972656 148.285156 170.699219 148.742188 169.445312 149.261719 C 168.191406 149.78125 166.96875 150.359375 165.773438 151 C 164.578125 151.636719 163.417969 152.332031 162.289062 153.085938 C 161.164062 153.839844 160.074219 154.644531 159.027344 155.507812 C 157.980469 156.367188 156.976562 157.273438 156.019531 158.234375 C 155.058594 159.191406 154.148438 160.195312 153.289062 161.242188 C 152.429688 162.292969 151.625 163.378906 150.871094 164.503906 C 150.117188 165.632812 149.421875 166.792969 148.78125 167.988281 C 148.144531 169.183594 147.566406 170.410156 147.046875 171.660156 C 146.527344 172.914062 146.070312 174.1875 145.675781 175.484375 C 145.285156 176.78125 144.957031 178.097656 144.691406 179.425781 C 144.425781 180.753906 144.226562 182.09375 144.09375 183.441406 C 143.960938 184.792969 143.894531 186.144531 143.894531 187.5 C 143.894531 188.855469 143.960938 190.207031 144.09375 191.558594 C 144.226562 192.90625 144.425781 194.246094 144.691406 195.574219 C 144.957031 196.902344 145.285156 198.21875 145.675781 199.515625 C 146.070312 200.8125 146.527344 202.085938 147.046875 203.339844 C 147.566406 204.589844 148.144531 205.816406 148.78125 207.011719 C 149.421875 208.207031 150.117188 209.367188 150.871094 210.496094 C 151.625 211.621094 152.429688 212.707031 153.289062 213.757812 C 154.148438 214.804688 155.058594 215.808594 156.019531 216.765625 C 156.976562 217.726562 157.980469 218.632812 159.027344 219.492188 C 160.074219 220.355469 161.164062 221.160156 162.289062 221.914062 C 163.417969 222.667969 164.578125 223.363281 165.773438 224 C 166.96875 224.640625 168.191406 225.21875 169.445312 225.738281 C 170.699219 226.257812 171.972656 226.714844 173.269531 227.105469 C 174.566406 227.5 175.878906 227.828125 177.210938 228.09375 C 178.539062 228.359375 179.878906 228.554688 181.226562 228.6875 C 182.578125 228.820312 183.929688 228.890625 185.285156 228.890625 C 186.640625 228.890625 187.992188 228.820312 189.339844 228.6875 C 190.691406 228.554688 192.027344 228.359375 193.359375 228.09375 C 194.6875 227.828125 196 227.5 197.296875 227.105469 C 198.597656 226.714844 199.871094 226.257812 201.121094 225.738281 C 202.375 225.21875 203.597656 224.640625 204.792969 224 C 205.988281 223.363281 207.152344 222.667969 208.277344 221.914062 C 209.40625 221.160156 210.492188 220.355469 211.539062 219.492188 C 212.589844 218.632812 213.59375 217.726562 214.550781 216.765625 C 215.507812 215.808594 216.417969 214.804688 217.277344 213.757812 C 218.136719 212.707031 218.945312 211.621094 219.699219 210.496094 C 220.449219 209.367188 221.148438 208.207031 221.785156 207.011719 C 222.425781 205.816406 223.003906 204.589844 223.523438 203.339844 C 224.039062 202.085938 224.496094 200.8125 224.890625 199.515625 C 225.285156 198.21875 225.613281 196.902344 225.878906 195.574219 C 226.140625 194.246094 226.339844 192.90625 226.472656 191.558594 C 226.605469 190.207031 226.671875 188.855469 226.671875 187.5 C 226.671875 186.144531 226.605469 184.792969 226.472656 183.441406 C 226.339844 182.09375 226.140625 180.753906 225.878906 179.425781 C 225.613281 178.097656 225.285156 176.78125 224.890625 175.484375 C 224.496094 174.1875 224.039062 172.914062 223.523438 171.660156 C 223.003906 170.410156 222.425781 169.183594 221.785156 167.988281 C 221.148438 166.792969 220.449219 165.632812 219.699219 164.503906 C 218.945312 163.378906 218.136719 162.292969 217.277344 161.242188 C 216.417969 160.195312 215.507812 159.191406 214.550781 158.234375 C 213.59375 157.273438 212.589844 156.367188 211.539062 155.507812 C 210.492188 154.644531 209.40625 153.839844 208.277344 153.085938 C 207.152344 152.332031 205.988281 151.636719 204.792969 151 C 203.597656 150.359375 202.375 149.78125 201.121094 149.261719 C 199.871094 148.742188 198.597656 148.285156 197.296875 147.894531 C 196 147.5 194.6875 147.171875 193.359375 146.90625 C 192.027344 146.640625 190.691406 146.445312 189.339844 146.3125 C 187.992188 146.179688 186.640625 146.109375 185.285156 146.109375 Z M 185.285156 146.109375 " fill-opacity="1" fill-rule="nonzero"/><path fill="rgb(87.838745%, 47.839355%, 37.249756%)" d="M 317.734375 146.109375 C 316.378906 146.109375 315.023438 146.179688 313.675781 146.3125 C 312.328125 146.445312 310.988281 146.640625 309.660156 146.90625 C 308.328125 147.171875 307.015625 147.5 305.71875 147.894531 C 304.421875 148.285156 303.148438 148.742188 301.894531 149.261719 C 300.640625 149.78125 299.417969 150.359375 298.222656 151 C 297.027344 151.636719 295.867188 152.332031 294.738281 153.085938 C 293.613281 153.839844 292.523438 154.644531 291.476562 155.507812 C 290.429688 156.367188 289.425781 157.273438 288.46875 158.234375 C 287.507812 159.191406 286.597656 160.195312 285.738281 161.242188 C 284.878906 162.292969 284.074219 163.378906 283.320312 164.503906 C 282.566406 165.632812 281.871094 166.792969 281.230469 167.988281 C 280.59375 169.183594 280.015625 170.410156 279.496094 171.660156 C 278.976562 172.914062 278.519531 174.1875 278.125 175.484375 C 277.734375 176.78125 277.402344 178.097656 277.140625 179.425781 C 276.875 180.753906 276.675781 182.09375 276.542969 183.441406 C 276.410156 184.792969 276.34375 186.144531 276.34375 187.5 C 276.34375 188.855469 276.410156 190.207031 276.542969 191.558594 C 276.675781 192.90625 276.875 194.246094 277.140625 195.574219 C 277.402344 196.902344 277.734375 198.21875 278.125 199.515625 C 278.519531 200.8125 278.976562 202.085938 279.496094 203.339844 C 280.015625 204.589844 280.59375 205.816406 281.230469 207.011719 C 281.871094 208.207031 282.566406 209.367188 283.320312 210.492188 C 284.074219 211.621094 284.878906 212.707031 285.738281 213.757812 C 286.597656 214.804688 287.507812 215.808594 288.46875 216.765625 C 289.425781 217.722656 290.429688 218.632812 291.476562 219.492188 C 292.523438 220.355469 293.613281 221.160156 294.738281 221.914062 C 295.867188 222.667969 297.027344 223.363281 298.222656 224 C 299.417969 224.640625 300.640625 225.21875 301.894531 225.738281 C 303.148438 226.257812 304.421875 226.710938 305.71875 227.105469 C 307.015625 227.5 308.328125 227.828125 309.660156 228.09375 C 310.988281 228.359375 312.328125 228.554688 313.675781 228.6875 C 315.023438 228.820312 316.378906 228.886719 317.734375 228.886719 C 319.089844 228.886719 320.441406 228.820312 321.789062 228.6875 C 323.140625 228.554688 324.476562 228.359375 325.808594 228.09375 C 327.136719 227.828125 328.449219 227.5 329.746094 227.105469 C 331.042969 226.710938 332.320312 226.257812 333.570312 225.738281 C 334.824219 225.21875 336.046875 224.640625 337.242188 224 C 338.4375 223.363281 339.601562 222.667969 340.726562 221.914062 C 341.855469 221.160156 342.941406 220.355469 343.988281 219.492188 C 345.039062 218.632812 346.039062 217.722656 347 216.765625 C 347.957031 215.808594 348.867188 214.804688 349.726562 213.757812 C 350.585938 212.707031 351.394531 211.621094 352.144531 210.492188 C 352.898438 209.367188 353.59375 208.207031 354.234375 207.011719 C 354.875 205.816406 355.453125 204.589844 355.972656 203.339844 C 356.488281 202.085938 356.945312 200.8125 357.339844 199.515625 C 357.734375 198.21875 358.0625 196.902344 358.328125 195.574219 C 358.589844 194.246094 358.789062 192.90625 358.921875 191.558594 C 359.054688 190.207031 359.121094 188.855469 359.121094 187.5 C 359.121094 186.144531 359.054688 184.792969 358.921875 183.441406 C 358.789062 182.09375 358.589844 180.753906 358.328125 179.425781 C 358.0625 178.097656 357.734375 176.78125 357.339844 175.484375 C 356.945312 174.1875 356.488281 172.914062 355.972656 171.660156 C 355.453125 170.410156 354.875 169.183594 354.234375 167.988281 C 353.59375 166.792969 352.898438 165.632812 352.144531 164.503906 C 351.394531 163.378906 350.585938 162.292969 349.726562 161.242188 C 348.867188 160.195312 347.957031 159.191406 347 158.234375 C 346.039062 157.273438 345.039062 156.367188 343.988281 155.507812 C 342.941406 154.644531 341.855469 153.839844 340.726562 153.085938 C 339.601562 152.332031 338.4375 151.636719 337.242188 151 C 336.046875 150.359375 334.824219 149.78125 333.570312 149.261719 C 332.320312 148.742188 331.042969 148.285156 329.746094 147.894531 C 328.449219 147.5 327.136719 147.171875 325.808594 146.90625 C 324.476562 146.640625 323.140625 146.445312 321.789062 146.3125 C 320.441406 146.179688 319.089844 146.109375 317.734375 146.109375 Z M 317.734375 146.109375 " fill-opacity="1" fill-rule="nonzero"/></svg>