<?xml version="1.0" encoding="UTF-8"?><svg xmlns="http://www.w3.org/2000/svg" xmlns:xlink="http://www.w3.org/1999/xlink" width="375" zoomAndPan="magnify" viewBox="0 0 375 374.999991" height="374.999991" preserveAspectRatio="xMidYMid meet" version="1.0"><defs><clipPath id="clip-0"><path d="M 49.695312 37.5 L 337.105469 37.5 L 337.105469 326.355469 L 49.695312 326.355469 Z M 49.695312 37.5 " clip-rule="nonzero"/></clipPath><clipPath id="clip-1"><path d="M 49.695312 47.214844 L 337.105469 47.214844 L 337.105469 336.070312 L 49.695312 336.070312 Z M 49.695312 47.214844 " clip-rule="nonzero"/></clipPath><clipPath id="clip-2"><path d="M 35.445312 37.5 L 322.855469 37.5 L 322.855469 326.355469 L 35.445312 326.355469 Z M 35.445312 37.5 " clip-rule="nonzero"/></clipPath></defs><rect x="-37.5" width="450" fill="rgb(100%, 100%, 100%)" y="-37.499999" height="449.999989" fill-opacity="1"/><rect x="-37.5" width="450" fill="rgb(100%, 100%, 100%)" y="-37.499999" height="449.999989" fill-opacity="1"/><rect x="-37.5" width="450" fill="rgb(100%, 98.81897%, 94.898987%)" y="-37.499999" height="449.999989" fill-opacity="1"/><g clip-path="url(#clip-0)"><path fill="rgb(92.158508%, 36.859131%, 15.689087%)" d="M 337.003906 170.820312 C 337.011719 170.714844 336.988281 170.613281 336.957031 170.519531 C 336.953125 170.515625 336.957031 170.507812 336.953125 170.5 L 308.3125 95.175781 C 308.308594 95.164062 308.296875 95.160156 308.292969 95.148438 C 308.246094 95.039062 308.179688 94.933594 308.078125 94.851562 L 245.089844 44.675781 C 244.992188 44.59375 244.871094 44.535156 244.742188 44.515625 C 244.730469 44.511719 244.722656 44.511719 244.710938 44.511719 L 193.296875 37.507812 C 193.195312 37.496094 193.089844 37.503906 192.992188 37.53125 L 168.488281 44.503906 L 167.789062 44.503906 C 167.648438 44.503906 167.515625 44.542969 167.402344 44.613281 C 167.402344 44.613281 167.402344 44.613281 167.398438 44.613281 L 166.773438 44.988281 L 106.460938 62.15625 C 106.441406 62.164062 106.429688 62.179688 106.410156 62.1875 C 106.332031 62.214844 106.257812 62.257812 106.191406 62.316406 C 106.164062 62.339844 106.136719 62.359375 106.113281 62.382812 C 106.097656 62.398438 106.082031 62.40625 106.070312 62.421875 L 53.253906 131.085938 C 53.234375 131.109375 53.230469 131.132812 53.21875 131.15625 C 53.199219 131.1875 53.175781 131.210938 53.164062 131.246094 C 53.152344 131.265625 53.152344 131.289062 53.144531 131.3125 C 53.128906 131.351562 53.121094 131.390625 53.117188 131.433594 C 53.113281 131.460938 53.101562 131.480469 53.097656 131.507812 L 49.773438 191.898438 C 49.769531 191.949219 49.773438 192.003906 49.78125 192.054688 L 54.648438 222.597656 C 54.65625 222.640625 54.675781 222.671875 54.6875 222.710938 C 54.695312 222.738281 54.695312 222.765625 54.707031 222.789062 C 54.707031 222.792969 54.714844 222.800781 54.71875 222.804688 C 54.71875 222.8125 54.71875 222.824219 54.726562 222.832031 L 79.316406 269.738281 C 79.359375 269.816406 79.414062 269.890625 79.484375 269.953125 L 108.324219 295.488281 C 108.371094 295.539062 108.421875 295.585938 108.480469 295.625 L 141.832031 318.136719 C 141.921875 318.195312 142.027344 318.234375 142.136719 318.253906 L 194.460938 326.402344 L 194.46875 326.402344 C 194.472656 326.402344 194.472656 326.40625 194.480469 326.40625 C 194.519531 326.410156 194.554688 326.414062 194.59375 326.414062 C 194.59375 326.414062 194.59375 326.414062 194.597656 326.414062 C 194.648438 326.414062 194.699219 326.410156 194.75 326.398438 C 194.75 326.398438 194.75 326.398438 194.753906 326.394531 C 194.753906 326.394531 194.757812 326.394531 194.757812 326.394531 C 194.757812 326.394531 194.761719 326.394531 194.761719 326.394531 C 194.765625 326.394531 194.769531 326.394531 194.773438 326.390625 C 194.773438 326.390625 194.773438 326.390625 194.777344 326.390625 C 194.777344 326.394531 194.78125 326.390625 194.777344 326.390625 C 194.777344 326.390625 194.78125 326.390625 194.78125 326.390625 L 194.785156 326.386719 C 194.785156 326.386719 194.785156 326.386719 194.789062 326.386719 C 194.789062 326.386719 194.792969 326.386719 194.792969 326.386719 C 194.796875 326.382812 194.796875 326.382812 194.800781 326.382812 L 280.304688 301.359375 C 280.335938 301.347656 280.351562 301.316406 280.382812 301.304688 C 280.464844 301.269531 280.527344 301.21875 280.59375 301.15625 C 280.621094 301.128906 280.667969 301.121094 280.691406 301.089844 L 332.707031 232.386719 C 332.789062 232.277344 332.824219 232.152344 332.84375 232.023438 C 332.84375 232.007812 332.859375 232 332.859375 231.984375 Z M 331.394531 231.335938 L 308.898438 237.03125 L 335.199219 175.171875 Z M 240.109375 222.570312 L 157.210938 193.359375 L 219.734375 148.269531 Z M 219.738281 145.835938 L 157.390625 104.992188 L 238.453125 81.769531 Z M 218.84375 147.050781 L 156.355469 192.121094 L 156.355469 106.117188 Z M 154.847656 192.382812 L 83.929688 157.519531 L 154.847656 106.199219 Z M 170.207031 275.957031 L 102.601562 238.015625 L 155.09375 194.984375 Z M 156.582031 194.738281 L 239.652344 224.011719 L 171.761719 276.058594 Z M 240.5625 225.210938 L 244.941406 287.449219 L 173.117188 276.914062 Z M 241.527344 222.050781 L 221.191406 147.882812 L 290.355469 154.804688 Z M 291.320312 156.039062 L 306.660156 237.15625 L 242.503906 223.269531 Z M 307.886719 235.554688 L 292.722656 155.359375 L 335.25 171.203125 Z M 291.425781 152.449219 L 241.296875 81.816406 L 306.675781 96.015625 Z M 290.164062 153.269531 L 221.152344 146.363281 L 239.847656 82.371094 Z M 156.589844 103.65625 L 168.332031 46.367188 L 237.476562 80.476562 Z M 155.035156 103.734375 L 101.992188 85.976562 L 166.703125 46.796875 Z M 153.972656 104.96875 L 83.699219 155.824219 L 100.746094 87.148438 Z M 82.046875 156.234375 L 54.945312 131.53125 L 98.839844 88.570312 Z M 99.539062 85.777344 L 60.976562 123.515625 L 104.910156 66.40625 Z M 81.574219 157.84375 L 56.082031 218.867188 L 54.632812 133.28125 Z M 82.269531 160.085938 L 100.226562 236.980469 L 56.398438 222.023438 Z M 83.566406 159.019531 L 154.214844 193.75 L 101.730469 236.78125 Z M 169.289062 277.171875 L 109.523438 294.03125 L 102.21875 239.53125 Z M 170.839844 278.300781 L 193.109375 324.328125 L 111.367188 295.078125 Z M 194.875 324.515625 L 172.539062 278.355469 L 243.824219 288.8125 Z M 246.410156 286.835938 L 242.039062 224.710938 L 305.917969 238.539062 Z M 305.664062 240.683594 L 279.6875 299.6875 L 247.273438 288.074219 Z M 308.152344 238.777344 L 330.214844 233.191406 L 283.375 295.054688 Z M 292.640625 153.71875 L 307.730469 97.882812 L 334.957031 169.484375 Z M 245.171875 46.667969 L 304.613281 94.023438 L 240.402344 80.078125 Z M 193.25 39.023438 L 233.488281 44.503906 L 173.996094 44.503906 Z M 243.746094 46.011719 L 238.960938 79.53125 L 171.023438 46.011719 Z M 101.445312 84.546875 L 107.28125 63.492188 L 161.886719 47.949219 Z M 51.277344 191.898438 L 53.449219 152.46875 L 54.457031 211.839844 Z M 80.582031 268.910156 L 60.628906 230.847656 L 104.046875 289.691406 Z M 57.429688 223.972656 L 100.585938 238.699219 L 107.753906 292.179688 Z M 114.261719 297.710938 L 186.855469 323.6875 L 142.53125 316.785156 Z M 245.882812 289.175781 L 277.65625 300.5625 L 198.527344 323.722656 Z M 245.882812 289.175781 " fill-opacity="1" fill-rule="nonzero"/></g><g clip-path="url(#clip-1)"><path fill="rgb(14.509583%, 14.118958%, 13.328552%)" d="M 337.003906 180.535156 C 337.011719 180.429688 336.988281 180.328125 336.957031 180.234375 C 336.953125 180.226562 336.957031 180.222656 336.953125 180.214844 L 308.3125 104.886719 C 308.308594 104.878906 308.296875 104.875 308.292969 104.863281 C 308.246094 104.75 308.179688 104.644531 308.078125 104.566406 L 245.089844 54.386719 C 244.992188 54.308594 244.871094 54.25 244.742188 54.226562 C 244.730469 54.226562 244.722656 54.226562 244.710938 54.226562 L 193.296875 47.222656 C 193.195312 47.210938 193.089844 47.214844 192.992188 47.242188 L 168.488281 54.21875 L 167.789062 54.21875 C 167.648438 54.21875 167.515625 54.257812 167.402344 54.324219 C 167.402344 54.324219 167.402344 54.324219 167.398438 54.324219 L 166.773438 54.703125 L 106.460938 71.871094 C 106.441406 71.878906 106.429688 71.894531 106.410156 71.898438 C 106.332031 71.929688 106.257812 71.972656 106.191406 72.03125 C 106.164062 72.050781 106.136719 72.070312 106.113281 72.097656 C 106.097656 72.113281 106.082031 72.117188 106.070312 72.136719 L 53.253906 140.800781 C 53.234375 140.824219 53.230469 140.847656 53.21875 140.871094 C 53.199219 140.898438 53.175781 140.925781 53.164062 140.960938 C 53.152344 140.980469 53.152344 141.003906 53.144531 141.023438 C 53.128906 141.066406 53.121094 141.105469 53.117188 141.148438 C 53.113281 141.175781 53.101562 141.195312 53.097656 141.222656 L 49.773438 201.609375 C 49.769531 201.664062 49.773438 201.71875 49.78125 201.769531 L 54.648438 232.3125 C 54.65625 232.351562 54.675781 232.386719 54.6875 232.425781 C 54.695312 232.449219 54.695312 232.476562 54.707031 232.503906 C 54.707031 232.507812 54.714844 232.511719 54.71875 232.519531 C 54.71875 232.527344 54.71875 232.535156 54.726562 232.542969 L 79.316406 279.449219 C 79.359375 279.53125 79.414062 279.605469 79.484375 279.667969 L 108.324219 305.203125 C 108.371094 305.253906 108.421875 305.300781 108.480469 305.335938 L 141.832031 327.847656 C 141.921875 327.910156 142.027344 327.949219 142.136719 327.96875 L 194.460938 336.117188 L 194.46875 336.117188 C 194.472656 336.117188 194.472656 336.117188 194.480469 336.117188 C 194.519531 336.125 194.554688 336.128906 194.59375 336.128906 C 194.59375 336.128906 194.59375 336.128906 194.597656 336.128906 C 194.648438 336.128906 194.699219 336.121094 194.75 336.113281 C 194.75 336.113281 194.75 336.113281 194.753906 336.109375 C 194.753906 336.109375 194.757812 336.109375 194.757812 336.109375 C 194.757812 336.109375 194.761719 336.109375 194.761719 336.109375 C 194.765625 336.105469 194.769531 336.105469 194.773438 336.105469 C 194.773438 336.105469 194.773438 336.105469 194.777344 336.105469 C 194.777344 336.105469 194.78125 336.105469 194.777344 336.105469 C 194.777344 336.105469 194.78125 336.105469 194.78125 336.105469 L 194.785156 336.101562 C 194.785156 336.101562 194.785156 336.101562 194.789062 336.101562 C 194.789062 336.101562 194.792969 336.097656 194.792969 336.097656 C 194.796875 336.097656 194.796875 336.097656 194.800781 336.097656 L 280.304688 311.070312 C 280.335938 311.0625 280.351562 311.03125 280.382812 311.019531 C 280.464844 310.980469 280.527344 310.933594 280.59375 310.871094 C 280.621094 310.84375 280.667969 310.835938 280.691406 310.804688 L 332.707031 242.101562 C 332.789062 241.992188 332.824219 241.867188 332.84375 241.738281 C 332.84375 241.722656 332.859375 241.710938 332.859375 241.695312 Z M 331.394531 241.046875 L 308.898438 246.746094 L 335.199219 184.886719 Z M 240.109375 232.285156 L 157.210938 203.070312 L 219.734375 157.980469 Z M 219.738281 155.550781 L 157.390625 114.707031 L 238.453125 91.480469 Z M 218.84375 156.765625 L 156.355469 201.832031 L 156.355469 115.832031 Z M 154.847656 202.09375 L 83.929688 167.234375 L 154.847656 115.910156 Z M 170.207031 285.667969 L 102.601562 247.730469 L 155.09375 204.695312 Z M 156.582031 204.449219 L 239.652344 233.726562 L 171.761719 285.773438 Z M 240.5625 234.925781 L 244.941406 297.164062 L 173.117188 286.628906 Z M 241.527344 231.761719 L 221.191406 157.597656 L 290.355469 164.519531 Z M 291.320312 165.753906 L 306.660156 246.871094 L 242.503906 232.984375 Z M 307.886719 245.265625 L 292.722656 165.074219 L 335.25 180.917969 Z M 291.425781 162.160156 L 241.296875 91.53125 L 306.675781 105.726562 Z M 290.164062 162.984375 L 221.152344 156.078125 L 239.847656 92.082031 Z M 156.589844 113.367188 L 168.332031 56.078125 L 237.476562 90.191406 Z M 155.035156 113.449219 L 101.992188 95.6875 L 166.703125 56.511719 Z M 153.972656 114.683594 L 83.699219 165.539062 L 100.746094 96.859375 Z M 82.046875 165.949219 L 54.945312 141.242188 L 98.839844 98.285156 Z M 99.539062 95.492188 L 60.976562 133.230469 L 104.910156 76.117188 Z M 81.574219 167.558594 L 56.082031 228.582031 L 54.632812 142.996094 Z M 82.269531 169.796875 L 100.226562 246.695312 L 56.398438 231.738281 Z M 83.566406 168.734375 L 154.214844 203.464844 L 101.730469 246.496094 Z M 169.289062 286.882812 L 109.523438 303.742188 L 102.21875 249.246094 Z M 170.839844 288.015625 L 193.109375 334.042969 L 111.367188 304.789062 Z M 194.875 334.230469 L 172.539062 288.070312 L 243.824219 298.527344 Z M 246.410156 296.546875 L 242.039062 234.425781 L 305.917969 248.253906 Z M 305.664062 250.398438 L 279.6875 309.398438 L 247.273438 297.789062 Z M 308.152344 248.488281 L 330.214844 242.902344 L 283.375 304.769531 Z M 292.640625 163.433594 L 307.730469 107.597656 L 334.957031 179.199219 Z M 245.171875 56.382812 L 304.613281 103.734375 L 240.402344 89.789062 Z M 193.25 48.738281 L 233.488281 54.21875 L 173.996094 54.21875 Z M 243.746094 55.726562 L 238.960938 89.242188 L 171.023438 55.726562 Z M 101.445312 94.257812 L 107.28125 73.207031 L 161.886719 57.664062 Z M 51.277344 201.613281 L 53.449219 162.183594 L 54.457031 221.554688 Z M 80.582031 278.625 L 60.628906 240.5625 L 104.046875 299.40625 Z M 57.429688 233.683594 L 100.585938 248.410156 L 107.753906 301.894531 Z M 114.261719 307.425781 L 186.855469 333.402344 L 142.53125 326.5 Z M 245.882812 298.890625 L 277.65625 310.277344 L 198.527344 333.4375 Z M 245.882812 298.890625 " fill-opacity="1" fill-rule="nonzero"/></g><g clip-path="url(#clip-2)"><path fill="rgb(92.158508%, 36.859131%, 15.689087%)" d="M 322.75 170.820312 C 322.757812 170.714844 322.738281 170.613281 322.707031 170.519531 C 322.703125 170.515625 322.707031 170.507812 322.703125 170.5 L 294.0625 95.175781 C 294.058594 95.164062 294.046875 95.160156 294.042969 95.148438 C 293.992188 95.039062 293.929688 94.933594 293.828125 94.851562 L 230.839844 44.675781 C 230.742188 44.59375 230.621094 44.535156 230.488281 44.515625 C 230.480469 44.511719 230.46875 44.511719 230.460938 44.511719 L 179.046875 37.507812 C 178.945312 37.496094 178.839844 37.503906 178.738281 37.53125 L 154.234375 44.503906 L 153.539062 44.503906 C 153.398438 44.503906 153.265625 44.542969 153.152344 44.613281 C 153.148438 44.613281 153.148438 44.613281 153.148438 44.613281 L 152.523438 44.988281 L 92.210938 62.15625 C 92.191406 62.164062 92.179688 62.179688 92.160156 62.1875 C 92.078125 62.214844 92.007812 62.257812 91.9375 62.316406 C 91.914062 62.339844 91.886719 62.359375 91.859375 62.382812 C 91.847656 62.398438 91.832031 62.40625 91.820312 62.421875 L 39 131.085938 C 38.984375 131.109375 38.980469 131.132812 38.96875 131.15625 C 38.949219 131.1875 38.925781 131.210938 38.910156 131.246094 C 38.902344 131.265625 38.898438 131.289062 38.890625 131.3125 C 38.878906 131.351562 38.871094 131.390625 38.867188 131.433594 C 38.859375 131.460938 38.847656 131.480469 38.847656 131.507812 L 35.519531 191.898438 C 35.519531 191.949219 35.519531 192.003906 35.527344 192.054688 L 40.398438 222.597656 C 40.40625 222.640625 40.425781 222.671875 40.4375 222.710938 C 40.445312 222.738281 40.445312 222.765625 40.453125 222.789062 C 40.457031 222.792969 40.464844 222.800781 40.464844 222.804688 C 40.46875 222.8125 40.46875 222.824219 40.472656 222.832031 L 65.0625 269.738281 C 65.105469 269.816406 65.164062 269.890625 65.234375 269.953125 L 94.074219 295.488281 C 94.121094 295.539062 94.171875 295.585938 94.230469 295.625 L 127.582031 318.136719 C 127.671875 318.195312 127.777344 318.234375 127.886719 318.253906 L 180.210938 326.402344 L 180.21875 326.402344 C 180.222656 326.402344 180.222656 326.40625 180.226562 326.40625 C 180.265625 326.410156 180.304688 326.414062 180.34375 326.414062 C 180.398438 326.414062 180.449219 326.410156 180.5 326.398438 C 180.5 326.398438 180.5 326.398438 180.503906 326.394531 C 180.507812 326.394531 180.507812 326.394531 180.507812 326.394531 C 180.507812 326.394531 180.507812 326.394531 180.511719 326.394531 C 180.515625 326.394531 180.519531 326.394531 180.523438 326.390625 C 180.527344 326.394531 180.527344 326.390625 180.527344 326.390625 L 180.53125 326.386719 C 180.53125 326.386719 180.535156 326.386719 180.535156 326.386719 C 180.535156 326.386719 180.539062 326.386719 180.539062 326.386719 C 180.539062 326.386719 180.542969 326.386719 180.542969 326.386719 C 180.546875 326.382812 180.546875 326.382812 180.550781 326.382812 L 266.050781 301.359375 C 266.082031 301.347656 266.101562 301.316406 266.128906 301.304688 C 266.214844 301.269531 266.277344 301.21875 266.34375 301.15625 C 266.371094 301.128906 266.414062 301.121094 266.4375 301.089844 L 318.457031 232.386719 C 318.539062 232.277344 318.574219 232.152344 318.589844 232.023438 C 318.59375 232.007812 318.605469 232 318.609375 231.984375 Z M 317.144531 231.335938 L 294.648438 237.03125 L 320.949219 175.171875 Z M 225.859375 222.570312 L 142.960938 193.359375 L 205.480469 148.269531 Z M 205.484375 145.835938 L 143.140625 104.992188 L 224.199219 81.769531 Z M 204.59375 147.050781 L 142.101562 192.121094 L 142.101562 106.117188 Z M 140.597656 192.382812 L 69.679688 157.519531 L 140.597656 106.199219 Z M 155.957031 275.957031 L 88.351562 238.015625 L 140.84375 194.984375 Z M 142.332031 194.738281 L 225.402344 224.011719 L 157.507812 276.058594 Z M 226.3125 225.210938 L 230.691406 287.449219 L 158.867188 276.914062 Z M 227.277344 222.050781 L 206.941406 147.882812 L 276.105469 154.804688 Z M 277.066406 156.039062 L 292.40625 237.15625 L 228.253906 223.269531 Z M 293.636719 235.554688 L 278.472656 155.359375 L 320.996094 171.203125 Z M 277.175781 152.449219 L 227.046875 81.816406 L 292.425781 96.015625 Z M 275.910156 153.269531 L 206.902344 146.363281 L 225.59375 82.371094 Z M 142.339844 103.65625 L 154.082031 46.367188 L 223.226562 80.476562 Z M 140.785156 103.734375 L 87.742188 85.976562 L 152.453125 46.796875 Z M 139.71875 104.96875 L 69.449219 155.824219 L 86.492188 87.148438 Z M 67.796875 156.234375 L 40.695312 131.53125 L 84.589844 88.570312 Z M 85.289062 85.777344 L 46.726562 123.515625 L 90.65625 66.40625 Z M 67.320312 157.84375 L 41.832031 218.867188 L 40.378906 133.28125 Z M 68.019531 160.085938 L 85.976562 236.980469 L 42.144531 222.023438 Z M 69.316406 159.019531 L 139.964844 193.75 L 87.476562 236.78125 Z M 155.035156 277.171875 L 95.273438 294.03125 L 87.96875 239.53125 Z M 156.589844 278.300781 L 178.859375 324.328125 L 97.117188 295.078125 Z M 180.625 324.515625 L 158.289062 278.355469 L 229.570312 288.8125 Z M 232.160156 286.835938 L 227.789062 224.710938 L 291.667969 238.539062 Z M 291.414062 240.683594 L 265.4375 299.6875 L 233.023438 288.074219 Z M 293.898438 238.777344 L 315.960938 233.191406 L 269.121094 295.054688 Z M 278.390625 153.71875 L 293.480469 97.882812 L 320.703125 169.484375 Z M 230.921875 46.667969 L 290.363281 94.023438 L 226.152344 80.078125 Z M 179 39.023438 L 219.238281 44.503906 L 159.746094 44.503906 Z M 229.492188 46.011719 L 224.707031 79.53125 L 156.769531 46.011719 Z M 87.191406 84.546875 L 93.03125 63.492188 L 147.636719 47.949219 Z M 37.027344 191.898438 L 39.199219 152.46875 L 40.203125 211.839844 Z M 66.332031 268.910156 L 46.378906 230.847656 L 89.792969 289.691406 Z M 43.179688 223.972656 L 86.335938 238.699219 L 93.503906 292.179688 Z M 100.011719 297.710938 L 172.601562 323.6875 L 128.28125 316.785156 Z M 231.628906 289.175781 L 263.40625 300.5625 L 184.277344 323.722656 Z M 231.628906 289.175781 " fill-opacity="1" fill-rule="nonzero"/></g></svg>