<?xml version="1.0" encoding="UTF-8"?><svg xmlns="http://www.w3.org/2000/svg" xmlns:xlink="http://www.w3.org/1999/xlink" width="375" zoomAndPan="magnify" viewBox="0 0 375 374.999991" height="374.999991" preserveAspectRatio="xMidYMid meet" version="1.0"><defs><clipPath id="clip-0"><path d="M 70.066406 102.363281 L 228.4375 102.363281 L 228.4375 190.730469 L 70.066406 190.730469 Z M 70.066406 102.363281 " clip-rule="nonzero"/></clipPath><clipPath id="clip-1"><path d="M 11.757812 126.371094 L 363.761719 126.371094 L 363.761719 224 L 11.757812 224 Z M 11.757812 126.371094 " clip-rule="nonzero"/></clipPath><clipPath id="clip-2"><path d="M 11.757812 173 L 363.761719 173 L 363.761719 231 L 11.757812 231 Z M 11.757812 173 " clip-rule="nonzero"/></clipPath><clipPath id="clip-3"><path d="M 11.757812 166.175781 L 151.941406 166.175781 L 151.941406 225.914062 L 11.757812 225.914062 Z M 11.757812 166.175781 " clip-rule="nonzero"/></clipPath><clipPath id="clip-4"><path d="M 11.757812 190 L 85.144531 190 L 85.144531 221.523438 L 11.757812 221.523438 Z M 11.757812 190 " clip-rule="nonzero"/></clipPath><clipPath id="clip-5"><path d="M 268 208 L 335 208 L 335 254.90625 L 268 254.90625 Z M 268 208 " clip-rule="nonzero"/></clipPath><clipPath id="clip-6"><path d="M 11.757812 173.207031 L 363.761719 173.207031 L 363.761719 231 L 11.757812 231 Z M 11.757812 173.207031 " clip-rule="nonzero"/></clipPath></defs><g clip-path="url(#clip-0)"><path fill="rgb(93.328857%, 24.308777%, 78.819275%)" d="M 228.4375 181.550781 C 228.4375 182.84375 228.402344 184.140625 228.339844 185.433594 C 228.277344 186.730469 228.179688 188.019531 228.054688 189.3125 C 227.925781 190.601562 227.769531 191.886719 227.578125 193.167969 C 227.386719 194.449219 227.167969 195.726562 226.914062 196.996094 C 226.660156 198.269531 226.378906 199.53125 226.0625 200.789062 C 225.746094 202.046875 225.402344 203.296875 225.027344 204.535156 C 224.648438 205.777344 224.242188 207.007812 223.808594 208.226562 C 223.371094 209.445312 222.902344 210.65625 222.40625 211.851562 C 221.914062 213.050781 221.386719 214.234375 220.832031 215.40625 C 220.277344 216.578125 219.695312 217.734375 219.085938 218.878906 C 218.476562 220.019531 217.835938 221.148438 217.171875 222.257812 C 216.503906 223.371094 215.8125 224.464844 215.089844 225.542969 C 214.371094 226.621094 213.625 227.679688 212.851562 228.71875 C 212.082031 229.761719 211.285156 230.78125 210.460938 231.785156 C 209.640625 232.785156 208.792969 233.765625 207.921875 234.726562 C 207.050781 235.6875 206.160156 236.625 205.242188 237.542969 C 204.328125 238.457031 203.386719 239.351562 202.429688 240.222656 C 201.46875 241.09375 200.488281 241.9375 199.484375 242.761719 C 198.484375 243.582031 197.460938 244.378906 196.421875 245.152344 C 195.378906 245.921875 194.320312 246.667969 193.242188 247.390625 C 192.164062 248.109375 191.070312 248.800781 189.960938 249.46875 C 188.847656 250.136719 187.722656 250.773438 186.578125 251.382812 C 185.433594 251.996094 184.277344 252.578125 183.105469 253.132812 C 181.933594 253.6875 180.75 254.210938 179.554688 254.707031 C 178.355469 255.203125 177.148438 255.667969 175.925781 256.105469 C 174.707031 256.542969 173.476562 256.949219 172.238281 257.324219 C 170.996094 257.699219 169.75 258.046875 168.492188 258.363281 C 167.234375 258.675781 165.96875 258.960938 164.699219 259.214844 C 163.429688 259.464844 162.152344 259.6875 160.871094 259.878906 C 159.585938 260.066406 158.300781 260.226562 157.011719 260.351562 C 155.722656 260.480469 154.429688 260.574219 153.136719 260.640625 C 151.839844 260.703125 150.546875 260.734375 149.25 260.734375 C 147.953125 260.734375 146.660156 260.703125 145.363281 260.640625 C 144.070312 260.574219 142.777344 260.480469 141.488281 260.351562 C 140.199219 260.226562 138.914062 260.066406 137.632812 259.878906 C 136.351562 259.6875 135.074219 259.464844 133.800781 259.214844 C 132.53125 258.960938 131.265625 258.675781 130.011719 258.363281 C 128.753906 258.046875 127.503906 257.699219 126.265625 257.324219 C 125.023438 256.949219 123.792969 256.542969 122.574219 256.105469 C 121.355469 255.667969 120.144531 255.203125 118.949219 254.707031 C 117.75 254.210938 116.566406 253.6875 115.394531 253.132812 C 114.222656 252.578125 113.066406 251.996094 111.921875 251.382812 C 110.78125 250.773438 109.652344 250.136719 108.542969 249.46875 C 107.429688 248.800781 106.335938 248.109375 105.257812 247.390625 C 104.179688 246.667969 103.121094 245.921875 102.082031 245.152344 C 101.039062 244.378906 100.019531 243.582031 99.015625 242.761719 C 98.015625 241.9375 97.035156 241.09375 96.074219 240.222656 C 95.113281 239.351562 94.175781 238.457031 93.257812 237.542969 C 92.34375 236.625 91.449219 235.6875 90.578125 234.726562 C 89.707031 233.765625 88.863281 232.785156 88.039062 231.785156 C 87.21875 230.78125 86.421875 229.761719 85.648438 228.71875 C 84.875 227.679688 84.128906 226.621094 83.410156 225.542969 C 82.691406 224.464844 81.996094 223.371094 81.332031 222.257812 C 80.664062 221.148438 80.027344 220.019531 79.414062 218.878906 C 78.804688 217.734375 78.222656 216.578125 77.667969 215.40625 C 77.113281 214.234375 76.589844 213.050781 76.09375 211.851562 C 75.597656 210.65625 75.132812 209.445312 74.695312 208.226562 C 74.257812 207.007812 73.851562 205.777344 73.476562 204.535156 C 73.097656 203.296875 72.753906 202.046875 72.4375 200.789062 C 72.125 199.53125 71.839844 198.269531 71.585938 196.996094 C 71.335938 195.726562 71.113281 194.449219 70.921875 193.167969 C 70.734375 191.886719 70.574219 190.601562 70.445312 189.3125 C 70.320312 188.019531 70.222656 186.730469 70.160156 185.433594 C 70.097656 184.140625 70.066406 182.84375 70.066406 181.550781 C 70.066406 180.253906 70.097656 178.957031 70.160156 177.664062 C 70.222656 176.371094 70.320312 175.078125 70.445312 173.789062 C 70.574219 172.5 70.734375 171.210938 70.921875 169.929688 C 71.113281 168.648438 71.335938 167.371094 71.585938 166.101562 C 71.839844 164.832031 72.125 163.566406 72.4375 162.308594 C 72.753906 161.050781 73.097656 159.804688 73.476562 158.5625 C 73.851562 157.324219 74.257812 156.09375 74.695312 154.871094 C 75.132812 153.652344 75.597656 152.445312 76.09375 151.246094 C 76.589844 150.050781 77.113281 148.863281 77.667969 147.695312 C 78.222656 146.523438 78.804688 145.363281 79.414062 144.222656 C 80.027344 143.078125 80.664062 141.953125 81.332031 140.839844 C 81.996094 139.730469 82.691406 138.632812 83.410156 137.558594 C 84.128906 136.480469 84.875 135.421875 85.648438 134.378906 C 86.421875 133.339844 87.21875 132.316406 88.039062 131.316406 C 88.863281 130.3125 89.707031 129.332031 90.578125 128.371094 C 91.449219 127.410156 92.34375 126.472656 93.257812 125.558594 C 94.175781 124.640625 95.113281 123.746094 96.074219 122.878906 C 97.035156 122.007812 98.015625 121.160156 99.015625 120.339844 C 100.019531 119.515625 101.039062 118.71875 102.082031 117.949219 C 103.121094 117.175781 104.179688 116.429688 105.257812 115.710938 C 106.335938 114.988281 107.429688 114.296875 108.542969 113.628906 C 109.652344 112.964844 110.78125 112.324219 111.921875 111.714844 C 113.066406 111.105469 114.222656 110.519531 115.394531 109.96875 C 116.566406 109.414062 117.75 108.886719 118.949219 108.390625 C 120.144531 107.894531 121.355469 107.429688 122.574219 106.992188 C 123.792969 106.558594 125.023438 106.148438 126.265625 105.773438 C 127.503906 105.398438 128.753906 105.050781 130.011719 104.738281 C 131.265625 104.421875 132.53125 104.140625 133.800781 103.886719 C 135.074219 103.632812 136.351562 103.410156 137.632812 103.222656 C 138.914062 103.03125 140.199219 102.871094 141.488281 102.746094 C 142.777344 102.617188 144.070312 102.523438 145.363281 102.460938 C 146.660156 102.394531 147.953125 102.363281 149.25 102.363281 C 150.546875 102.363281 151.839844 102.394531 153.136719 102.460938 C 154.429688 102.523438 155.722656 102.617188 157.011719 102.746094 C 158.300781 102.871094 159.585938 103.03125 160.871094 103.222656 C 162.152344 103.410156 163.429688 103.632812 164.699219 103.886719 C 165.96875 104.140625 167.234375 104.421875 168.492188 104.738281 C 169.75 105.050781 170.996094 105.398438 172.238281 105.773438 C 173.476562 106.148438 174.707031 106.558594 175.925781 106.992188 C 177.148438 107.429688 178.355469 107.894531 179.554688 108.390625 C 180.75 108.886719 181.933594 109.414062 183.105469 109.96875 C 184.277344 110.519531 185.433594 111.105469 186.578125 111.714844 C 187.722656 112.324219 188.847656 112.964844 189.960938 113.628906 C 191.070312 114.296875 192.164062 114.988281 193.242188 115.710938 C 194.320312 116.429688 195.378906 117.175781 196.421875 117.949219 C 197.460938 118.71875 198.484375 119.515625 199.484375 120.339844 C 200.488281 121.160156 201.46875 122.007812 202.429688 122.878906 C 203.386719 123.746094 204.328125 124.640625 205.242188 125.558594 C 206.160156 126.472656 207.050781 127.410156 207.921875 128.371094 C 208.792969 129.332031 209.640625 130.3125 210.460938 131.316406 C 211.285156 132.316406 212.082031 133.339844 212.851562 134.378906 C 213.625 135.421875 214.371094 136.480469 215.089844 137.558594 C 215.8125 138.632812 216.503906 139.730469 217.171875 140.839844 C 217.835938 141.953125 218.476562 143.078125 219.085938 144.222656 C 219.695312 145.363281 220.277344 146.523438 220.832031 147.695312 C 221.386719 148.863281 221.914062 150.050781 222.40625 151.246094 C 222.902344 152.445312 223.371094 153.652344 223.808594 154.871094 C 224.242188 156.09375 224.648438 157.324219 225.027344 158.5625 C 225.402344 159.804688 225.746094 161.050781 226.0625 162.308594 C 226.378906 163.566406 226.660156 164.832031 226.914062 166.101562 C 227.167969 167.371094 227.386719 168.648438 227.578125 169.929688 C 227.769531 171.210938 227.925781 172.5 228.054688 173.789062 C 228.179688 175.078125 228.277344 176.371094 228.339844 177.664062 C 228.402344 178.957031 228.4375 180.253906 228.4375 181.550781 Z M 228.4375 181.550781 " fill-opacity="1" fill-rule="nonzero"/></g><g clip-path="url(#clip-1)"><path fill="rgb(14.509583%, 51.759338%, 100%)" d="M 89.714844 223.875 C 148.339844 223.875 197.910156 160.273438 218.125 166.070312 C 227.75 168.796875 232.574219 165.148438 236.847656 161.511719 C 242.742188 156.46875 247.558594 151.425781 262.511719 163.261719 C 276.664062 174.457031 285.03125 160.660156 294.582031 146.867188 C 302.410156 135.5625 311.035156 124.253906 324.300781 126.707031 C 353.742188 132.160156 363.761719 190.316406 363.761719 190.316406 L 11.757812 190.316406 C 11.757812 190.316406 48.847656 223.875 89.714844 223.875 " fill-opacity="1" fill-rule="nonzero"/></g><g clip-path="url(#clip-2)"><path fill="rgb(89.408875%, 19.999695%, 59.21936%)" d="M 24.0625 198.570312 C 51.660156 217.109375 88.398438 214.382812 112.917969 191.984375 C 113.535156 191.367188 114.238281 190.839844 114.851562 190.316406 L 11.757812 190.316406 L 24.0625 198.570312 M 228.054688 209.640625 C 251.964844 233.445312 289.144531 237.578125 317.617188 219.570312 L 363.761719 190.316406 L 208.28125 190.316406 C 209.6875 191.542969 211.179688 192.863281 212.5 194.179688 L 228.054688 209.640625 M 114.851562 190.316406 L 208.28125 190.316406 C 181.5625 167.558594 141.921875 167.386719 114.851562 190.316406 " fill-opacity="1" fill-rule="nonzero"/></g><g clip-path="url(#clip-3)"><path fill="rgb(0%, 76.858521%, 79.998779%)" d="M 134.839844 166.949219 C 140.253906 166.949219 145.84375 168.933594 151.589844 173.625 L 151.855469 173.839844 C 138.59375 175.636719 125.714844 181.113281 114.851562 190.316406 L 100 190.316406 C 110.519531 177.769531 122.199219 166.941406 134.839844 166.949219 M 11.757812 190.316406 C 11.757812 190.316406 37.527344 213.628906 69.773438 221.390625 C 64.65625 224.492188 59.691406 225.789062 54.945312 225.789062 C 30.195312 225.789062 11.757812 190.316406 11.757812 190.316406 " fill-opacity="1" fill-rule="nonzero"/></g><g clip-path="url(#clip-4)"><path fill="rgb(10.5896%, 2.749634%, 37.649536%)" d="M 11.757812 190.316406 L 24.0625 198.570312 C 36.296875 206.789062 50.324219 210.828125 64.289062 210.828125 C 71.292969 210.828125 78.289062 209.808594 85.03125 207.792969 C 80.222656 213.039062 75.503906 217.621094 71.257812 220.449219 C 70.765625 220.777344 70.265625 221.09375 69.773438 221.390625 C 37.527344 213.628906 11.757812 190.316406 11.757812 190.316406 " fill-opacity="1" fill-rule="nonzero"/></g><path fill="rgb(0%, 76.858521%, 79.998779%)" d="M 171.929688 190.316406 L 208.28125 190.316406 C 209.6875 191.542969 211.179688 192.863281 212.5 194.179688 L 228.054688 209.640625 C 231.589844 213.164062 235.414062 216.25 239.457031 218.90625 C 239.414062 218.921875 239.359375 218.9375 239.308594 218.953125 C 233.621094 220.800781 228.390625 221.644531 223.484375 221.644531 C 203.480469 221.644531 188.9375 207.628906 171.050781 190.921875 C 171.339844 190.71875 171.640625 190.519531 171.929688 190.316406 " fill-opacity="1" fill-rule="nonzero"/><path fill="rgb(10.5896%, 2.749634%, 37.649536%)" d="M 170.398438 190.316406 L 171.929688 190.316406 C 171.640625 190.519531 171.339844 190.71875 171.050781 190.921875 C 170.832031 190.71875 170.621094 190.519531 170.398438 190.316406 " fill-opacity="1" fill-rule="nonzero"/><g clip-path="url(#clip-5)"><path fill="rgb(0%, 76.858521%, 79.998779%)" d="M 334.710938 208.730469 C 322.652344 226.878906 315.796875 252.25 296.964844 254.710938 C 295.914062 254.84375 294.914062 254.910156 293.957031 254.910156 C 282.375 254.910156 277.304688 245.46875 272.089844 236.027344 C 270.957031 233.976562 269.824219 231.921875 268.601562 229.960938 C 272.082031 230.472656 275.589844 230.726562 279.105469 230.726562 C 292.394531 230.726562 305.757812 227.066406 317.617188 219.570312 L 334.710938 208.730469 " fill-opacity="1" fill-rule="nonzero"/></g><g clip-path="url(#clip-6)"><path fill="rgb(79.60968%, 53.329468%, 100%)" d="M 151.855469 173.839844 C 158.605469 179.390625 164.667969 185.023438 170.398438 190.316406 L 114.851562 190.316406 C 125.714844 181.113281 138.59375 175.636719 151.855469 173.839844 M 11.757812 190.316406 L 100 190.316406 C 95.226562 196.03125 90.085938 202.28125 85.03125 207.792969 C 78.289062 209.808594 71.292969 210.828125 64.289062 210.828125 C 50.324219 210.828125 36.296875 206.789062 24.0625 198.570312 L 11.757812 190.316406 M 170.398438 190.316406 L 208.28125 190.316406 L 170.398438 190.316406 M 208.28125 190.316406 L 363.761719 190.316406 C 350.222656 190.316406 341.617188 198.339844 334.710938 208.730469 L 317.617188 219.570312 C 305.757812 227.066406 292.394531 230.726562 279.105469 230.726562 C 275.589844 230.726562 272.082031 230.472656 268.601562 229.960938 C 264.242188 222.925781 258.90625 217.148438 249.421875 217.148438 C 246.523438 217.148438 243.226562 217.691406 239.457031 218.90625 C 235.414062 216.25 231.589844 213.164062 228.054688 209.640625 L 212.5 194.179688 C 211.179688 192.863281 209.6875 191.542969 208.28125 190.316406 " fill-opacity="1" fill-rule="nonzero"/></g></svg>