<?xml version="1.0" encoding="UTF-8"?><svg xmlns="http://www.w3.org/2000/svg" xmlns:xlink="http://www.w3.org/1999/xlink" width="375" zoomAndPan="magnify" viewBox="0 0 375 374.999991" height="374.999991" preserveAspectRatio="xMidYMid meet" version="1.0"><defs><clipPath id="clip-0"><path d="M 3.96875 120.339844 L 371.148438 120.339844 L 371.148438 222.472656 L 3.96875 222.472656 Z M 3.96875 120.339844 " clip-rule="nonzero"/></clipPath><clipPath id="clip-1"><path d="M 3.96875 169 L 371.148438 169 L 371.148438 229.816406 L 3.96875 229.816406 Z M 3.96875 169 " clip-rule="nonzero"/></clipPath><clipPath id="clip-2"><path d="M 3.96875 162 L 150.199219 162 L 150.199219 224.308594 L 3.96875 224.308594 Z M 3.96875 162 " clip-rule="nonzero"/></clipPath><clipPath id="clip-3"><path d="M 3.96875 187 L 80.519531 187 L 80.519531 219.722656 L 3.96875 219.722656 Z M 3.96875 187 " clip-rule="nonzero"/></clipPath><clipPath id="clip-4"><path d="M 271 206 L 341 206 L 341 254.589844 L 271 254.589844 Z M 271 206 " clip-rule="nonzero"/></clipPath><clipPath id="clip-5"><path d="M 3.96875 169.253906 L 371.148438 169.253906 L 371.148438 229.816406 L 3.96875 229.816406 Z M 3.96875 169.253906 " clip-rule="nonzero"/></clipPath></defs><rect x="-37.5" width="450" fill="rgb(100%, 100%, 100%)" y="-37.499999" height="449.999989" fill-opacity="1"/><rect x="-37.5" width="450" fill="rgb(100%, 100%, 100%)" y="-37.499999" height="449.999989" fill-opacity="1"/><rect x="-37.5" width="450" fill="rgb(0.779724%, 1.179504%, 1.568604%)" y="-37.499999" height="449.999989" fill-opacity="1"/><g clip-path="url(#clip-0)"><path fill="rgb(14.509583%, 51.759338%, 100%)" d="M 85.289062 222.175781 C 146.4375 222.175781 198.148438 155.75 219.234375 161.804688 C 229.273438 164.648438 234.304688 160.839844 238.761719 157.042969 C 244.914062 151.773438 249.9375 146.507812 265.53125 158.867188 C 280.292969 170.5625 289.023438 156.152344 298.984375 141.746094 C 307.152344 129.9375 316.148438 118.128906 329.984375 120.6875 C 360.695312 126.386719 371.148438 187.125 371.148438 187.125 L 3.96875 187.125 C 3.96875 187.125 42.65625 222.175781 85.289062 222.175781 " fill-opacity="1" fill-rule="nonzero"/></g><g clip-path="url(#clip-1)"><path fill="rgb(89.408875%, 19.999695%, 59.21936%)" d="M 16.804688 195.75 C 45.589844 215.113281 83.914062 212.265625 109.492188 188.867188 C 110.132812 188.226562 110.867188 187.675781 111.507812 187.125 L 3.96875 187.125 L 16.804688 195.75 M 229.59375 207.3125 C 254.53125 232.175781 293.3125 236.492188 323.015625 217.683594 L 371.148438 187.125 L 208.964844 187.125 C 210.433594 188.410156 211.992188 189.785156 213.367188 191.160156 L 229.59375 207.3125 M 111.507812 187.125 L 208.964844 187.125 C 181.09375 163.359375 139.746094 163.175781 111.507812 187.125 " fill-opacity="1" fill-rule="nonzero"/></g><g clip-path="url(#clip-2)"><path fill="rgb(0%, 76.858521%, 79.998779%)" d="M 132.355469 162.722656 C 138.003906 162.722656 143.835938 164.792969 149.832031 169.691406 L 150.105469 169.917969 C 136.273438 171.792969 122.839844 177.515625 111.507812 187.125 L 96.015625 187.125 C 106.988281 174.023438 119.171875 162.710938 132.355469 162.722656 M 3.96875 187.125 C 3.96875 187.125 30.847656 211.476562 64.488281 219.585938 C 59.152344 222.820312 53.972656 224.175781 49.019531 224.175781 C 23.203125 224.175781 3.96875 187.125 3.96875 187.125 " fill-opacity="1" fill-rule="nonzero"/></g><g clip-path="url(#clip-3)"><path fill="rgb(10.5896%, 2.749634%, 37.649536%)" d="M 3.96875 187.125 L 16.804688 195.75 C 29.566406 204.332031 44.199219 208.554688 58.765625 208.554688 C 66.074219 208.554688 73.371094 207.488281 80.402344 205.378906 C 75.386719 210.863281 70.464844 215.648438 66.035156 218.597656 C 65.523438 218.945312 65 219.273438 64.488281 219.585938 C 30.847656 211.476562 3.96875 187.125 3.96875 187.125 " fill-opacity="1" fill-rule="nonzero"/></g><path fill="rgb(0%, 76.858521%, 79.998779%)" d="M 171.046875 187.125 L 208.964844 187.125 C 210.433594 188.410156 211.992188 189.785156 213.367188 191.160156 L 229.59375 207.3125 C 233.277344 210.988281 237.265625 214.214844 241.484375 216.988281 C 241.4375 217.003906 241.382812 217.023438 241.328125 217.035156 C 235.394531 218.96875 229.941406 219.847656 224.824219 219.847656 C 203.960938 219.847656 188.785156 205.210938 170.128906 187.761719 C 170.433594 187.550781 170.742188 187.335938 171.046875 187.125 " fill-opacity="1" fill-rule="nonzero"/><path fill="rgb(10.5896%, 2.749634%, 37.649536%)" d="M 169.449219 187.125 L 171.046875 187.125 C 170.742188 187.335938 170.433594 187.550781 170.128906 187.761719 C 169.898438 187.550781 169.679688 187.335938 169.449219 187.125 " fill-opacity="1" fill-rule="nonzero"/><g clip-path="url(#clip-4)"><path fill="rgb(0%, 76.858521%, 79.998779%)" d="M 340.847656 206.359375 C 328.269531 225.316406 321.117188 251.816406 301.46875 254.382812 C 300.375 254.523438 299.332031 254.59375 298.332031 254.59375 C 286.253906 254.59375 280.964844 244.734375 275.523438 234.871094 C 274.34375 232.730469 273.160156 230.582031 271.886719 228.535156 C 275.515625 229.070312 279.171875 229.335938 282.84375 229.335938 C 296.703125 229.335938 310.644531 225.511719 323.015625 217.683594 L 340.847656 206.359375 " fill-opacity="1" fill-rule="nonzero"/></g><g clip-path="url(#clip-5)"><path fill="rgb(79.60968%, 53.329468%, 100%)" d="M 150.105469 169.917969 C 157.148438 175.71875 163.472656 181.597656 169.449219 187.125 L 111.507812 187.125 C 122.839844 177.515625 136.273438 171.792969 150.105469 169.917969 M 3.96875 187.125 L 96.015625 187.125 C 91.039062 193.097656 85.675781 199.625 80.402344 205.378906 C 73.371094 207.488281 66.074219 208.554688 58.765625 208.554688 C 44.199219 208.554688 29.566406 204.332031 16.804688 195.75 L 3.96875 187.125 M 169.449219 187.125 L 208.964844 187.125 L 169.449219 187.125 M 208.964844 187.125 L 371.148438 187.125 C 357.027344 187.125 348.046875 195.503906 340.847656 206.359375 L 323.015625 217.683594 C 310.644531 225.511719 296.703125 229.335938 282.84375 229.335938 C 279.171875 229.335938 275.515625 229.070312 271.886719 228.535156 C 267.335938 221.1875 261.773438 215.15625 251.878906 215.15625 C 248.855469 215.15625 245.417969 215.722656 241.484375 216.988281 C 237.265625 214.214844 233.277344 210.988281 229.59375 207.3125 L 213.367188 191.160156 C 211.992188 189.785156 210.433594 188.410156 208.964844 187.125 " fill-opacity="1" fill-rule="nonzero"/></g></svg>